<svg xmlns="http://www.w3.org/2000/svg" width="1200" height="700" viewBox="0 0 1200 700">
<defs><linearGradient id="bg" x1="0" y1="0" x2="1" y2="1"><stop stop-color="#fff"/><stop offset="1" stop-color="#f3f7fa"/></linearGradient><linearGradient id="case" x1="0" y1="0" x2="1" y2="1"><stop stop-color="#fff"/><stop offset="1" stop-color="#dde5ea"/></linearGradient><filter id="sh" x="-20%" y="-20%" width="140%" height="160%"><feDropShadow dx="0" dy="22" stdDeviation="20" flood-color="#24384b" flood-opacity=".18"/></filter></defs>
<rect width="1200" height="700" fill="url(#bg)"/><ellipse cx="604" cy="585" rx="355" ry="38" fill="#dfe7ec" opacity=".65"/>
<g filter="url(#sh)" transform="translate(230 95)">
<polygon points="110,65 650,65 715,110 175,110" fill="#fbfcfd" stroke="#7f929f" stroke-width="3"/>
<rect x="175" y="110" width="540" height="390" rx="5" fill="url(#case)" stroke="#738694" stroke-width="4"/>
<rect x="110" y="110" width="65" height="390" fill="#d9e1e7" stroke="#738694" stroke-width="4"/>
<g stroke="#8da0ad" stroke-width="3"><line x1="355" y1="110" x2="355" y2="500"/><line x1="535" y1="110" x2="535" y2="500"/></g>
<g fill="#edf3f6" stroke="#9aaab5"><rect x="192" y="130" width="146" height="350"/><rect x="372" y="130" width="146" height="350"/><rect x="552" y="130" width="146" height="350"/></g>
<g fill="#495b68"><rect x="202" y="146" width="126" height="92" rx="3"/><rect x="202" y="270" width="126" height="92" rx="3"/></g>
<g stroke="#728592" stroke-width="4"><line x1="214" y1="165" x2="316" y2="165"/><line x1="214" y1="186" x2="316" y2="186"/><line x1="214" y1="207" x2="316" y2="207"/><line x1="214" y1="289" x2="316" y2="289"/><line x1="214" y1="310" x2="316" y2="310"/><line x1="214" y1="331" x2="316" y2="331"/></g>
<g fill="#233a4d"><rect x="390" y="154" width="110" height="155" rx="5"/><circle cx="445" cy="231" r="42" fill="#0f6ea5"/><circle cx="445" cy="231" r="12" fill="#b8c9d4"/></g>
<rect x="575" y="150" width="100" height="210" fill="#f2f5f7" stroke="#a4b1ba"/><g fill="#263d50"><rect x="593" y="178" width="64" height="85" rx="4"/></g><rect x="603" y="190" width="44" height="44" rx="3" fill="#7fc1e5"/><circle cx="625" cy="248" r="7" fill="#e23b36"/>
<g stroke="#7d8e99" stroke-width="5"><path d="M260 398c0 25 0 48 0 68"/><path d="M445 398c0 25 0 48 0 68"/><path d="M625 398c0 25 0 48 0 68"/></g>
<rect x="140" y="500" width="610" height="26" rx="3" fill="#7f909c"/><g fill="#596b78"><circle cx="205" cy="548" r="14"/><circle cx="680" cy="548" r="14"/></g>
<text x="198" y="98" font-family="Arial,sans-serif" font-size="22" font-weight="700" fill="#0a6fac">TROX X-CUBE X2 compact</text>
</g><text x="600" y="655" text-anchor="middle" font-family="Arial,sans-serif" font-size="26" font-weight="700" fill="#21364c">X-CUBE X2 compact · компактная готовая ПВУ</text></svg>