<svg xmlns="http://www.w3.org/2000/svg" width="1200" height="700" viewBox="0 0 1200 700">
<defs><linearGradient id="bg" x1="0" y1="0" x2="1" y2="1"><stop stop-color="#fff"/><stop offset="1" stop-color="#f3f7fa"/></linearGradient><linearGradient id="case" x1="0" y1="0" x2="1" y2="1"><stop stop-color="#fff"/><stop offset="1" stop-color="#dbe3e8"/></linearGradient><filter id="sh" x="-20%" y="-20%" width="140%" height="160%"><feDropShadow dx="0" dy="22" stdDeviation="20" flood-color="#24384b" flood-opacity=".18"/></filter></defs>
<rect width="1200" height="700" fill="url(#bg)"/><ellipse cx="600" cy="580" rx="420" ry="42" fill="#dfe7ec" opacity=".65"/>
<g filter="url(#sh)" transform="translate(135 130)">
<polygon points="90,50 860,50 930,95 160,95" fill="#fafcfd" stroke="#7d909f" stroke-width="3"/>
<rect x="160" y="95" width="770" height="360" rx="5" fill="url(#case)" stroke="#738694" stroke-width="4"/>
<g stroke="#8da0ad" stroke-width="3"><line x1="315" y1="95" x2="315" y2="455"/><line x1="470" y1="95" x2="470" y2="455"/><line x1="625" y1="95" x2="625" y2="455"/><line x1="780" y1="95" x2="780" y2="455"/></g>
<g fill="#eef3f6" stroke="#9aabb6"><rect x="176" y="115" width="122" height="320"/><rect x="332" y="115" width="122" height="320"/><rect x="487" y="115" width="122" height="320"/><rect x="642" y="115" width="122" height="320"/><rect x="797" y="115" width="116" height="320"/></g>
<g fill="#1d4f70"><circle cx="237" cy="275" r="57"/><circle cx="393" cy="275" r="57"/></g><g fill="#76b7db"><circle cx="237" cy="275" r="18"/><circle cx="393" cy="275" r="18"/></g>
<g stroke="#be5f50" stroke-width="5"><line x1="505" y1="145" x2="590" y2="405"/><line x1="525" y1="145" x2="610" y2="405"/><line x1="545" y1="145" x2="630" y2="405"/></g>
<g fill="#e8cf82" stroke="#9e874d"><rect x="658" y="145" width="90" height="55"/><rect x="658" y="220" width="90" height="55"/><rect x="658" y="295" width="90" height="55"/></g>
<rect x="816" y="145" width="78" height="110" rx="5" fill="#21364c"/><rect x="826" y="155" width="58" height="60" rx="3" fill="#78c1e7"/><circle cx="855" cy="236" r="7" fill="#e33d36"/>
<rect x="112" y="455" width="845" height="26" rx="3" fill="#7f909c"/><rect x="120" y="481" width="830" height="9" fill="#0874ba"/>
<g fill="#596b78"><circle cx="195" cy="510" r="14"/><circle cx="885" cy="510" r="14"/></g>
<text x="185" y="82" font-family="Arial,sans-serif" font-size="24" font-weight="700" fill="#0a6fac">TROX X-CUBE X2</text>
</g><text x="600" y="655" text-anchor="middle" font-family="Arial,sans-serif" font-size="26" font-weight="700" fill="#21364c">X-CUBE X2 · модульная серия для малых и средних расходов</text></svg>